<svg xmlns="http://www.w3.org/2000/svg" xmlns:xlink="http://www.w3.org/1999/xlink" width="128" height="128" viewBox="0 0 128 128">
  <defs>
    <clipPath id="clip-path">
      <path id="Image" d="M6,0H128a0,0,0,0,1,0,0V128a0,0,0,0,1,0,0H6a6,6,0,0,1-6-6V6A6,6,0,0,1,6,0Z" fill="#858585"/>
    </clipPath>
  </defs>
  <g id="Mask_Group_9" data-name="Mask Group 9" clip-path="url(#clip-path)">
    <g id="Group_2190" data-name="Group 2190">
      <path id="Path_1905" data-name="Path 1905" d="M0,0H128V128H0Z" fill="#858585"/>
      <g id="outline-person-24px" transform="translate(40 40)">
        <g id="Bounding_Boxes">
          <path id="Path_3493" data-name="Path 3493" d="M0,0H48V48H0Z" fill="none"/>
        </g>
        <g id="Outline" transform="translate(8 8)">
          <path id="Path_3494" data-name="Path 3494" d="M20,8a4,4,0,1,1-4,4,4.012,4.012,0,0,1,4-4m0,20c5.4,0,11.6,2.58,12,4H8c.46-1.44,6.62-4,12-4M20,4a8,8,0,1,0,8,8,8,8,0,0,0-8-8Zm0,20c-5.34,0-16,2.68-16,8v4H36V32c0-5.32-10.66-8-16-8Z" transform="translate(-4 -4)" fill="#f5f5f5"/>
        </g>
      </g>
    </g>
  </g>
</svg>
